<svg viewBox="0 0 32 32" xml:space="preserve" xmlns="http://www.w3.org/2000/svg" enable-background="new 0 0 32 32"><path d="M16 13a1 1 0 0 1-1-1V6a1 1 0 1 1 2 0v6a1 1 0 0 1-1 1z" fill="#ffffff" class="fill-000000"></path><path d="M16 27C9.935 27 5 22.065 5 16c0-4.336 2.56-8.281 6.521-10.05a1 1 0 1 1 .814 1.826A9.017 9.017 0 0 0 7 16c0 4.962 4.037 9 9 9s9-4.038 9-9c0-3.58-2.12-6.818-5.4-8.251a1 1 0 0 1 .8-1.833A11.006 11.006 0 0 1 27 16c0 6.065-4.935 11-11 11z" fill="#ffffff" class="fill-000000"></path></svg>